<svg xmlns="http://www.w3.org/2000/svg" width="130" height="36" viewBox="0 0 130 36">
    <g fill="#FFF" fill-rule="nonzero">
        <path d="M33.901 17.956h-6.499c-1.228 0-2.366-.789-2.73-1.845-1.044-2.95-4.105-4.051-4.105-4.051-1.096-.4-1.976-1.452-1.976-2.688V3.778c0-1.538 1.382-2.77 2.977-2.77 1.59 0 2.895 1.144 2.895 2.77l.02 4.485 6.644-6.464a2.957 2.957 0 0 1 4.1 0c1.134 1.097 1.135 3.152.002 4.255l-6.553 6.595h4.505c1.594 0 2.913 1.177 2.913 2.719 0 1.543-1.055 2.722-2.65 2.722m-.398 6.46l-4.59-.006 6.635 6.439a2.72 2.72 0 0 1 0 3.959c-1.136 1.105-3.178 1.105-4.31 0l-6.814-6.386v4.407c0 1.675-1.144 2.82-2.735 2.82-1.593 0-2.733-1.28-2.733-2.82v-5.599c0-1.189.813-2.29 1.904-2.64 3.05-1.014 4.114-3.89 4.114-3.89.41-1.055 1.524-1.817 2.748-1.817h5.781c1.598 0 2.911 1.246 2.911 2.79 0 1.538-1.18 2.743-2.91 2.743m-18.43 11.188c-1.592 0-2.68-1.015-2.68-2.774v-4.468l-6.815 6.447c-1.135 1.105-3.082 1.105-4.176 0-1.135-1.098-1.175-3.037-.04-4.093l6.538-6.526H2.911C1.273 24.324 0 23.212 0 21.674c0-1.543 1.273-2.657 2.911-2.657h5.78c1.226 0 2.321.672 2.73 1.73 1.046 2.994 4.038 3.991 4.038 3.991 1.136.396 1.947 1.395 1.947 2.626v5.6c0 1.54-1.148 2.774-2.79 2.774m.93-23.713c-3.046 1.058-4.11 4.002-4.11 4.002-.414 1.055-1.52 1.929-2.746 1.929H2.909C1.317 17.956 0 16.597 0 15.057c0-1.545 1.094-2.815 2.909-2.815l4.585-.012L.862 5.78a2.734 2.734 0 0 1 0-3.967C2.002.712 4.013.709 5.149 1.81l6.789 6.372V3.79c0-1.541 1.116-2.816 2.755-2.816 1.594 0 2.713 1.275 2.713 2.816v5.594c0 1.188-.765 2.292-1.86 2.642M44.503 3.254c0-.04.61-.055.985-.055 1.611 0 2.39.894 2.39 2.131 0 1.203-.93 2.033-2.464 2.033-.392 0-.91-.016-.91-.035V3.254zm0 6.129h.175l3.578 5.257h3.17l-3.09-4.464a32.047 32.047 0 0 0-1.06-1.455c1.846-.305 3.264-1.738 3.264-3.648 0-2.635-1.944-3.905-4.871-3.905-1.538 0-2.788.024-3.871.08v13.39h2.705V9.384zM56.468 12.823c-1.436 0-2.183-.99-2.183-2.941 0-1.948 1.103-2.789 2.225-2.789 1.472 0 2.162.995 2.162 2.829 0 1.927-.965 2.9-2.204 2.9m.214-7.79c-2.968 0-4.997 2.138-4.997 5.099 0 3.38 1.813 4.773 4.584 4.773 2.915 0 5.001-2.139 5.001-5.117 0-3.266-1.791-4.754-4.588-4.754M67.346 15.226l3.876-10.048h-2.696l-1.161 3.259c-.314.877-.73 1.998-.944 3.05h-.022c-.217-1.052-.49-1.826-.768-2.65l-1.316-3.659h-2.816l3.62 9.513-.314.851c-.53 1.487-1.398 1.876-2.222 1.876-.414 0-.863-.073-1.24-.188l-.295 2.102c.373.077.964.124 1.378.124 2.266 0 3.64-.946 4.92-4.23M77.343 10.435v.31c0 1.143-.809 2.288-2.031 2.288-.727 0-1.185-.498-1.185-1.106 0-.82.508-1.432 3.216-1.432m-2.932 4.41c1.385 0 2.39-.68 2.933-1.67v1.405h2.63c-.058-.527.077-1.607.077-2.37V8.356c0-2.12-.98-3.341-4.01-3.341-1.32 0-2.759.268-3.739.65l.393 1.87c.863-.363 2.037-.648 2.926-.648 1.297 0 1.722.515 1.722 1.664v.341c-3.248 0-5.69 1.05-5.69 3.304 0 1.546.99 2.71 2.758 2.71M82.26.973h2.17V14.64h-2.17zM92.08 8.673c.544-.018 1.004-.018 1.183-.018 1.754 0 2.846.632 2.846 1.855 0 1.127-.893 2.238-2.564 2.238-.477 0-.92-.04-1.465-.058V8.673zm0-5.401c.544-.017.946-.037 1.5-.037 1.552 0 2.175.711 2.175 1.665 0 1.147-.835 1.902-2.588 1.902-.408 0-.543 0-1.087-.02v-3.51zm6.754 7.161c0-1.434-.799-2.656-2.423-2.944v-.04c1.623-.494 2.047-1.669 2.047-2.948 0-2.062-1.436-3.251-4.292-3.251-1.613 0-3.171.04-4.25.094v13.371c1.62 0 2.832.036 3.72.036 3.892 0 5.198-2.33 5.198-4.318zM106.05 10.744c0 1.144-.826 2.288-2.049 2.288-.726 0-1.179-.497-1.179-1.105 0-.82.517-1.432 3.227-1.432v.25zm-5.65 1.45c0 1.546.926 2.71 2.7 2.71 1.387 0 2.406-.678 2.95-1.67v1.406h2.598c-.06-.527.111-1.608.111-2.37V8.356c0-2.12-1.002-3.341-4.03-3.341-1.32 0-2.763.268-3.748.65l.387 1.87c.869-.363 2.052-.648 2.937-.648 1.302 0 1.744.515 1.744 1.663v.341c-3.253 0-5.648 1.05-5.648 3.304zM112.55 10.13c0-1.661 1.154-3.054 2.414-3.054.944 0 1.376.592 1.376 1.566v5.998h2.164V8.05c0-1.663-.626-3.017-2.829-3.017-1.5 0-2.586.697-3.124 1.701V5.178h-2.17v9.462h2.17v-4.51h-.001zM122.837 10.328l3.059 4.312h3.146l-3.871-5.14 3.615-4.322h-3.069l-2.88 3.533V.973h-2.708V14.64h2.708z"/>
        <g>
            <path d="M46.76 33.9c-1.383 0-2.105-.958-2.105-2.831 0-1.878 1.061-2.689 2.143-2.689 1.422 0 2.086.957 2.086 2.724 0 1.857-.932 2.797-2.124 2.797m.21-7.508c-2.862 0-4.816 2.061-4.816 4.912 0 3.257 1.744 4.598 4.417 4.598 2.804 0 4.81-2.06 4.81-4.928 0-3.145-1.723-4.582-4.412-4.582M53.513 26.204v.524H51.89v2.104h1.623v6.834h2.71v-6.834h2.165v-2.104h-2.165v-.896c0-1.213.491-1.746 1.556-1.746.356 0 .804.036 1.185.164l.176-1.93c-.496-.109-1.14-.148-1.653-.148-2.575 0-3.92 1.29-3.92 3.755M65.713 26.23c0-.882.663-1.489 2.103-1.489.758 0 1.499.129 2.202.349l.226-2.098a12.57 12.57 0 0 0-2.313-.235c-3.091 0-4.834 1.523-4.834 3.73 0 4.086 5.384 3.346 5.384 5.72 0 1.16-.987 1.62-2.142 1.62a7.42 7.42 0 0 1-2.788-.537l-.262 2.3c.85.221 1.82.331 2.957.331 2.957 0 4.945-1.71 4.945-4.01-.001-3.934-5.478-3.473-5.478-5.681M76.945 33.863c-1.611 0-2.2-1.084-2.2-2.647 0-1.694.74-2.816 2.183-2.816.623 0 1.248.147 1.759.348l.38-2.02c-.608-.204-1.347-.312-2.065-.312-3.262 0-4.795 2.188-4.795 5.038 0 3.11 1.63 4.435 4.243 4.435.911 0 1.914-.149 2.653-.423l-.321-1.97a4.67 4.67 0 0 1-1.837.367M84.245 33.9c-1.382 0-2.1-.958-2.1-2.831 0-1.878 1.057-2.689 2.14-2.689 1.42 0 2.086.957 2.086 2.724 0 1.857-.93 2.797-2.126 2.797m.211-7.508c-2.863 0-4.816 2.061-4.816 4.912 0 3.257 1.744 4.598 4.416 4.598 2.804 0 4.816-2.06 4.816-4.928 0-3.145-1.726-4.582-4.416-4.582M94.771 33.917c-.834 0-1.181-.33-1.181-1.508v-3.575h2.168v-2.103H93.59v-3.98l-2.166.623v3.357H89.8v2.103h1.623v4.2c0 2.136.59 2.872 2.671 2.872.663 0 1.412-.11 2.02-.258l-.217-1.858c-.322.09-.73.127-1.127.127M97.57 22.525h2.705v13.142H97.57zM106.59 31.916c0 1.106-.641 2.208-1.818 2.208-.7 0-1.214-.48-1.214-1.068 0-.791.865-1.378 3.032-1.378v.238zm2.707-2.3c0-2.04-.861-3.217-3.777-3.217-1.27 0-2.611.257-3.557.626l.399 1.8c.837-.346 1.838-.623 2.689-.623 1.255 0 1.537.495 1.537 1.6v.332c-2.707 0-5.284 1.012-5.284 3.18 0 1.49.815 2.612 2.517 2.612 1.341 0 2.767-.656 2.767-1.61v1.35h2.811a26.03 26.03 0 0 1-.103-2.277v-3.772h.001zM116.481 26.42c-1.445 0-2.872.675-3.394 1.64v-1.332h-2.165v8.938h2.71v-4.334c0-1.6.914-2.943 2.125-2.943.908 0 1.122.568 1.122 1.506v5.77h2.709v-6.34c0-1.598-.985-2.904-3.107-2.904M126.63 30.993c0 1.564-.721 2.999-1.992 2.999-1.098 0-1.588-.884-1.588-2.594 0-2.264.956-3.108 2.337-3.108.418 0 .703.054 1.245.146v2.557h-.001zm0-8.468v3.98a9.202 9.202 0 0 0-1.155-.073c-3.128 0-4.966 2.132-4.966 5.224 0 2.61 1.033 4.286 3.326 4.286 1.374 0 2.254-.657 2.796-1.596v1.322h2.705V22.525h-2.705z"/>
        </g>
    </g>
</svg>
